<svg xmlns="http://www.w3.org/2000/svg" width="95" height="101" viewBox="0 0 95 101">
  <g fill="none" fill-rule="evenodd" stroke="#2C64FF" stroke-linecap="round" stroke-width="3" transform="translate(1 1)">
    <path stroke-linejoin="round" d="M16.4,59.8 L0.5,98.3 C0.5,98.3 44.2,75.7 49.9,70 C55.6,64.3 31.6,38.5 24.1,46 C18.1,52 34.4,70.7 43,70.7"/>
    <ellipse cx="25.9" cy="72.4" stroke-linejoin="bevel" rx="4.4" ry="5.2"/>
    <path stroke-linejoin="round" d="M14.9 77.4C14.9 77.4 19.3 86.3 12.1 86.3M37.5 42.5C37.5 39 41.6 35 41.6 27 41.6 19 37.8 17 37.8 12.5 37.8 8 43.9 3.9 43.9 3.9M49.9 35C49.9 35 64.4 31.2 64.4 14.1M52.4 49.3C52.4 47.1 58 35.8 65.9 35.8 80.4 35.8 85.5 26 85.5 21.5M77.4 44.1C77.4 40 89.9 35.4 89.9 37.8M57.1 56.5C57.1 56.5 60.6 53.6 66.9 53.6 74.3 53.6 74.6 58.3 79.8 58.3 85 58.3 88.9 55.9 88.9 55.9"/>
    <circle cx="57.8" cy="2.3" r="1.8" stroke-linejoin="round"/>
    <circle cx="52.4" cy="14" r="1.8" stroke-linejoin="round"/>
    <circle cx="72.4" cy="19" r="1.8" stroke-linejoin="round"/>
    <circle cx="69.4" cy="45" r="1.8" stroke-linejoin="round"/>
    <circle cx="34.4" cy="27" r="1.8" stroke-linejoin="round"/>
    <circle cx="78.4" cy="7" r="1.8" stroke-linejoin="round"/>
    <circle cx="90.4" cy="15" r="1.8" stroke-linejoin="round"/>
    <circle cx="89.4" cy="49" r="1.8" stroke-linejoin="round"/>
  </g>
</svg>
