<svg xmlns="http://www.w3.org/2000/svg" width="94" height="101" viewBox="0 0 94 101">
    <g fill="#2C64FF" fill-rule="nonzero">
        <path d="M44.334 51.522c1.779 1.692 5.74 5.458-.003-.002-1.153-1.096-.797-.758-.001-.002-3.728-3.544-7.838-6.238-11.572-7.586-4.207-1.518-7.577-1.173-9.486.971-1.91 2.145-1.963 5.642-.15 9.848 1.61 3.734 4.551 7.742 8.28 11.287 3.729 3.545 7.838 6.24 11.573 7.587.237.086.472.164.703.238L4.302 96.418 19.608 61.05c.388-.898-.001-1.952-.87-2.354-.87-.401-1.89.001-2.279.9L.2 97.165c-.954 2.191 1.707 4.699 3.725 3.542l46.503-26.637c.828-.412 1.424-.793 2.033-1.417 3.865-3.96.191-13.222-8.127-21.132zm5.589 18.72c-1.168 1.548-4.323.556-5.81.019-3.301-1.191-6.986-3.622-10.376-6.845-3.39-3.223-6.04-6.816-7.464-10.115-1.183-2.744-1.357-4.982-.464-5.985.45-.504 1.223-.757 2.231-.757.994 0 2.217.246 3.58.738 3.3 1.191 6.985 3.622 10.375 6.845 7.47 7.102 9.493 14.024 7.928 16.1zM44.437 8.264c.61-.584.745-1.712.303-2.519-.442-.806-1.294-.986-1.904-.402-3.356 3.218-5.03 6.539-4.973 9.871.041 2.415.93 3.89 1.792 5.317.742 1.23 1.51 2.502 1.885 4.683.576 3.34-.17 6.306-.827 8.923-.728 2.894-1.866 5.55-3.384 7.892-.49.756-.425 1.895.147 2.543.564.64 1.439.551 1.922-.195 1.75-2.699 3.063-5.761 3.902-9.102.694-2.76 1.644-6.54.899-10.863-.515-2.984-1.567-4.729-2.413-6.131-.773-1.282-1.177-2.003-1.197-3.147-.043-2.588 2.068-5.164 3.848-6.87zM65.066 15h-.003c-1.07 0-1.936.852-1.938 1.904a22.462 22.462 0 0 1-1.885 9.036c-2.392 5.456-6.39 8.74-9.325 10.533a1.89 1.89 0 0 0-.623 2.626c.367.581 1 .901 1.648.901.349 0 .702-.093 1.02-.287 3.405-2.082 8.048-5.899 10.838-12.262A26.198 26.198 0 0 0 67 16.91c.002-1.053-.864-1.908-1.934-1.91zM87.095 23.214c-.854-.452-1.931-.163-2.408.644-2.415 4.092-5.486 6.947-9.128 8.486-2.585 1.092-4.729 1.23-6.998 1.376-2.443.158-4.97.32-7.79 1.74-4.474 2.252-7.74 6.764-9.707 13.412-.25.847.256 1.76 1.136 2.042.948.303 2-.222 2.27-1.136 1.696-5.73 4.374-9.55 7.959-11.354 2.154-1.085 4.109-1.21 6.372-1.357 2.362-.152 5.04-.324 8.198-1.659 4.355-1.84 7.98-5.175 10.775-9.911.478-.81.173-1.831-.68-2.283zM89.733 56.253c-.516-.786-1.61-1.027-2.443-.54-2.825 1.651-5.407 2.252-7.67 1.787-1.419-.292-2.278-.904-3.365-1.68-.859-.612-1.832-1.305-3.157-1.86-3.997-1.676-9.073-1.155-15.087 1.547-.884.398-1.26 1.396-.838 2.23.422.833 1.48 1.187 2.366.79 5.034-2.263 9.112-2.77 12.117-1.511.951.399 1.683.92 2.458 1.473 1.203.858 2.568 1.83 4.748 2.28.752.154 1.518.231 2.298.231 2.538 0 5.22-.818 8-2.444.834-.487 1.09-1.518.573-2.303zM90.982 38.293c-.133-.818-.972-1.383-1.88-1.268a1.9 1.9 0 0 0-.008 0c-1.133.15-.422.056-.022.004a18.229 18.229 0 0 0-4.998 1.402c-2.186.97-4.16 2.4-5.71 4.133-.528.59-.476 1.47.12 2.005.69.62 1.86.564 2.471-.12a13.597 13.597 0 0 1 4.59-3.326 14.627 14.627 0 0 1 4.031-1.127c.91-.12 1.54-.883 1.406-1.703zM70.5 43a2.503 2.503 0 0 0-2.5 2.5c0 1.379 1.121 2.5 2.5 2.5s2.5-1.121 2.5-2.5-1.121-2.5-2.5-2.5zM73.5 17a2.503 2.503 0 0 0-2.5 2.5c0 1.379 1.122 2.5 2.5 2.5 1.379 0 2.5-1.121 2.5-2.5S74.879 17 73.5 17zM59.5 0A2.503 2.503 0 0 0 57 2.5C57 3.88 58.121 5 59.5 5S62 3.879 62 2.5 60.879 0 59.5 0zM91.5 13a2.503 2.503 0 0 0-2.5 2.5c0 1.378 1.122 2.5 2.5 2.5 1.379 0 2.5-1.121 2.5-2.5S92.878 13 91.5 13zM79.5 5A2.503 2.503 0 0 0 77 7.5c0 1.379 1.121 2.5 2.5 2.5S82 8.879 82 7.5 80.879 5 79.5 5zM53.5 12a2.503 2.503 0 0 0-2.5 2.5c0 1.378 1.121 2.5 2.5 2.5s2.5-1.121 2.5-2.5-1.121-2.5-2.5-2.5zM91.5 48a2.503 2.503 0 0 0-2.5 2.5c0 1.379 1.121 2.5 2.5 2.5s2.5-1.121 2.5-2.5c0-1.378-1.121-2.5-2.5-2.5z"/>
        <path d="M35.5 25a2.503 2.503 0 0 0-2.5 2.5c0 1.378 1.121 2.5 2.5 2.5s2.5-1.121 2.5-2.5-1.121-2.5-2.5-2.5zM28.5 66c-3.033 0-5.5 2.692-5.5 6s2.467 6 5.5 6 5.5-2.692 5.5-6-2.467-6-5.5-6zm0 8.14c-1.082 0-1.962-.96-1.962-2.14 0-1.18.88-2.14 1.962-2.14 1.082 0 1.962.96 1.962 2.14 0 1.18-.88 2.14-1.962 2.14zM18.678 79.634c-.47-1.546-1.398-2.774-2.613-3.456-.808-.454-1.76-.01-2.125.991-.366 1.001-.008 2.18.8 2.634.433.243.764.68.932 1.233a2.68 2.68 0 0 1-.045 1.689c-.405 1.108-1.463 1.601-2.358 1.099-.808-.454-1.76-.01-2.125.991-.366 1-.008 2.18.8 2.634a4.173 4.173 0 0 0 2.053.551c1.9 0 3.721-1.352 4.555-3.633a7.515 7.515 0 0 0 .126-4.733z"/>
    </g>
</svg>
