<svg xmlns="http://www.w3.org/2000/svg" width="88" height="84" viewBox="0 0 92 88">
    <g fill="#FFF" fill-rule="nonzero">
        <path d="M45.578 41.192L61.692 28 71 39.819 40.488 64 21 39.819l14.252-11.676 10.326 13.05zm-4.8 21.95L70.157 39.79l-8.61-11.103-15.822 13.05-4.945 21.404z"/>
        <path d="M31 17.723L52.764 0 67 17.43 45.236 36 31 17.723zm14.529 17.284l20.914-17.576L52.793.847l-7.264 34.16zM0 76.37h1.285v11.187H0zM2.979 76.37h7.243v1.253H7.243v10.076H5.958V77.623H2.98zM16.881 87.7h-1.285V76.511h2.98c2.423 0 3.971.541 3.825 3.188 0 1.395-.847 2.22-2.278 2.477 1.548.142 1.84.54 1.986 2.078.03.825.117 1.65.292 2.476 0 .143.146.684.438.684v.284h-1.548c-.292-.683-.438-2.078-.438-2.903 0-1.11-.438-2.078-1.986-2.078H16.59v4.981h.292zm0-6.092h1.986c.555 0 2.278-.143 2.278-2.078 0-1.936-1.548-1.936-2.424-1.936h-1.84v4.014zM24.825 87.7V76.37h5.666v1.253h-4.41v3.586H30.2v1.253h-4.118v4.013h4.41v1.253zM37.443 79.387c.146-1.11-.555-2.078-1.84-2.078-1.84 0-1.986 1.11-1.986 1.936 0 .826.292 1.252 1.139 1.509.554.284 1.285.427 1.84.683 2.132.825 2.54 1.508 2.54 3.046 0 2.078-1.43 3.33-3.533 3.33-1.14 0-2.425-.285-3.126-1.793-.292-.541-.292-1.395-.292-2.078h1.285c0 1.65.293 2.76 2.133 2.76 1.285 0 2.132-.682 2.132-1.935 0-1.65-.701-1.65-1.84-2.22-.555-.285-1.694-.54-2.278-.826-1.14-.54-1.432-1.394-1.432-2.476 0-1.793 1.285-3.046 3.272-3.046 2.132 0 3.417 1.11 3.27 3.188h-1.284zM44.54 76.228c3.417 0 3.826 3.045 3.68 5.522 0 3.046-.438 6.091-3.826 6.091s-3.68-3.045-3.826-6.091c.146-2.505.555-5.522 3.972-5.522m0 1.081c-1.986 0-2.424 1.936-2.424 4.555 0 3.188.292 4.981 2.424 4.981s2.424-1.65 2.424-4.981c-.03-2.619-.438-4.555-2.424-4.555M50.498 76.37h1.285v8.027c0 .826.146 2.363 2.132 2.363 1.986 0 2.132-1.395 2.132-2.363V76.37h1.285v8.568c0 1.936-1.431 3.046-3.417 3.046-2.132 0-3.417-.968-3.417-3.046V76.37zM61.129 87.7h-1.285V76.511h2.979c2.424 0 3.972.541 3.826 3.188 0 1.395-.847 2.22-2.278 2.477 1.548.142 1.84.54 1.986 2.078.029.825.117 1.65.292 2.476 0 .143.146.684.438.684v.284h-1.548c-.292-.683-.438-2.078-.438-2.903 0-1.11-.438-2.078-1.986-2.078h-2.278v4.981h.292zm0-6.092h1.986c.555 0 2.278-.143 2.278-2.078 0-1.936-1.548-1.936-2.424-1.936h-1.84v4.014zM74.301 79.814c0-1.394-.438-2.476-2.132-2.476-2.278 0-2.278 3.046-2.278 4.554 0 1.509-.146 4.982 2.278 4.982 1.548 0 1.84-1.253 1.986-2.477-.03-.284.03-.57.146-.825h1.285v.683c0 .968-.146 1.65-.7 2.362a2.867 2.867 0 0 1-2.542 1.253c-3.534 0-3.68-3.33-3.68-5.95 0-2.476.438-5.664 3.68-5.664 2.132 0 3.271 1.509 3.271 3.587h-1.314v-.029zM77.572 87.7V76.37h5.812v1.253h-4.527v3.586h4.264v1.253h-4.264v4.013h4.527v1.253zM90.19 79.387c.145-1.11-.556-2.078-1.84-2.078-1.84 0-1.987 1.11-1.987 1.936 0 .826.292 1.252 1.14 1.509.554.284 1.284.427 1.84.683 2.131.825 2.54 1.508 2.54 3.046 0 2.078-1.43 3.33-3.534 3.33-1.139 0-2.424-.285-3.125-1.793-.292-.541-.292-1.395-.292-2.078h1.285c0 1.65.292 2.76 2.132 2.76 1.285 0 2.132-.682 2.132-1.935 0-1.65-.7-1.65-1.84-2.22-.555-.285-1.694-.54-2.278-.826-1.139-.54-1.43-1.394-1.43-2.476 0-1.793 1.284-3.046 3.27-3.046 2.132 0 3.417 1.11 3.271 3.188H90.19z"/>
    </g>
</svg>
